<?xml version="1.0" standalone="no"?>
<!DOCTYPE svg PUBLIC "-//W3C//DTD SVG 20010904//EN"
 "http://www.w3.org/TR/2001/REC-SVG-20010904/DTD/svg10.dtd">
<svg version="1.0" xmlns="http://www.w3.org/2000/svg"
 width="72.000000pt" height="72.000000pt" viewBox="0 0 72.000000 72.000000"
 preserveAspectRatio="xMidYMid meet">

<g transform="translate(0.000000,72.000000) scale(0.100000,-0.100000)"
fill="#000000" stroke="none">
<path d="M330 681 c0 -41 -19 -89 -29 -73 -14 23 -71 -51 -85 -110 -9 -40 8
-35 22 6 7 19 20 40 29 48 15 11 16 10 11 -10 l-6 -22 30 21 c16 12 34 32 40
45 15 33 28 26 58 -31 23 -45 25 -47 31 -24 l6 24 8 -28 c8 -29 1 -120 -12
-154 -13 -36 33 15 49 55 9 20 20 48 26 62 10 25 10 25 28 -15 22 -50 29 -139
16 -188 -6 -21 -6 -35 -1 -32 14 9 11 -16 -5 -48 -15 -28 -9 -36 12 -15 9 9
12 7 12 -10 0 -35 -24 -75 -71 -117 l-43 -38 34 6 c87 18 153 120 158 247 2
66 1 73 -11 58 -18 -23 -28 -23 -20 -1 4 10 2 14 -4 10 -6 -4 -12 18 -16 59
-8 78 -49 175 -89 209 -38 32 -46 31 -41 -2 l4 -28 -18 25 c-28 41 -93 100
-108 100 -10 0 -15 -10 -15 -29z"/>
<path d="M170 498 c-17 -35 -30 -74 -30 -88 0 -20 -2 -22 -10 -10 -5 8 -10 33
-10 54 0 22 -3 37 -6 34 -12 -13 -34 -117 -36 -175 -1 -34 -5 -60 -10 -57 -14
9 -8 -19 16 -78 13 -32 19 -58 14 -58 -23 0 37 -61 84 -84 62 -31 111 -37 63
-8 -45 28 -99 93 -85 102 9 6 9 13 0 31 -13 23 -12 24 7 7 30 -27 34 -22 18
23 -19 54 -19 62 3 50 18 -10 18 -8 1 42 -23 65 -23 123 0 210 9 37 16 67 14
67 -2 0 -17 -28 -33 -62z"/>
<path d="M285 437 c-3 -7 -17 -67 -33 -134 l-29 -123 59 0 60 0 -8 -32 c-16
-72 -16 -73 58 -76 72 -3 77 0 92 61 6 24 4 27 -18 27 -16 0 -27 -7 -31 -20
-4 -13 -15 -20 -31 -20 -27 0 -27 1 -15 50 6 19 15 54 21 78 9 36 15 42 37 42
21 0 24 -4 20 -21 -5 -17 -1 -20 21 -17 19 2 28 11 33 32 5 16 6 33 3 38 -8
13 -130 10 -142 -4 -6 -7 -13 -30 -17 -50 -7 -36 -9 -38 -45 -38 l-38 0 24 93
c13 50 24 97 24 103 0 16 -40 25 -45 11z"/>
</g>
</svg>
